<svg xmlns="http://www.w3.org/2000/svg" version="1.1" xmlns:xlink="http://www.w3.org/1999/xlink" xmlns:svgjs="http://svgjs.dev/svgjs" width="1000" height="434" viewBox="0 0 1000 434"><g transform="matrix(1,0,0,1,-0.6060464613394743,0.4147677813028565)"><svg viewBox="0 0 396 172" data-background-color="#dedede" preserveAspectRatio="xMidYMid meet" height="434" width="1000" xmlns="http://www.w3.org/2000/svg" xmlns:xlink="http://www.w3.org/1999/xlink"><g id="tight-bounds" transform="matrix(1,0,0,1,0.2399943986904418,-0.16437795904955976)"><svg viewBox="0 0 395.52 172.3287534278169" height="172.3287534278169" width="395.52"><g><svg viewBox="0 0 395.52 172.3287534278169" height="172.3287534278169" width="395.52"><g transform="matrix(1,0,0,1,0,106.50608310510019)"><svg viewBox="0 0 395.52 65.82267032271672" height="65.82267032271672" width="395.52"><g><svg viewBox="0 0 395.52 65.82267032271672" height="65.82267032271672" width="395.52"><g><svg viewBox="0 0 395.52 65.82267032271672" height="65.82267032271672" width="395.52"><g transform="matrix(1,0,0,1,0,0)"><svg width="395.52" viewBox="1.5 -38.599998474121094 237.0399932861328 39.44999694824219" height="65.82267032271672" data-palette-color="#374151"><path d="M30.2-37.9L39.45-37.9 26.2 0.45 14.8 0.45 1.5-37.9 10.75-37.9 20.5-8.85 30.2-37.9ZM58.3-37.9Q68.7-37.9 73.97-33.08 79.25-28.25 79.25-18.9L79.25-18.9Q79.25-9.5 74-4.75 68.75 0 58.3 0L58.3 0 44.95 0 44.95-37.9 58.3-37.9ZM70.15-19.05Q70.15-24.9 67.25-27.6 64.35-30.3 58.3-30.3L58.3-30.3 53.95-30.3 53.95-7.6 58.3-7.6Q64.45-7.6 67.3-10.33 70.15-13.05 70.15-19.05L70.15-19.05ZM94-7.2L110.3-7.2 110.3 0 85 0 85-37.9 110.05-37.9 110.05-30.7 94-30.7 94-22.65 107.55-22.65 107.55-15.45 94-15.45 94-7.2ZM130.04 0.85Q126.04 0.85 122.64 0.18 119.24-0.5 116.09-2L116.09-2 116.09-10.1Q122.44-6.75 130.04-6.75L130.04-6.75Q132.99-6.75 134.37-7.75 135.74-8.75 135.74-10.4L135.74-10.4Q135.74-12.05 134.52-12.88 133.29-13.7 130.14-14.55L130.14-14.55 126.74-15.5Q123.74-16.35 121.54-17.48 119.34-18.6 117.79-20.85 116.24-23.1 116.24-26.65L116.24-26.65Q116.24-32.5 119.82-35.55 123.39-38.6 129.89-38.6L129.89-38.6Q133.79-38.6 136.74-37.9 139.69-37.2 142.79-35.75L142.79-35.75 142.79-27.95Q137.09-31 129.89-31L129.89-31Q127.24-31 126.19-30.1 125.14-29.2 125.14-27.5L125.14-27.5Q125.14-26.35 125.64-25.68 126.14-25 127.19-24.55 128.24-24.1 130.34-23.5L130.34-23.5 133.79-22.55Q136.99-21.65 139.29-20.45 141.59-19.25 143.12-16.9 144.64-14.55 144.64-10.85L144.64-10.85Q144.59-5.4 140.72-2.27 136.84 0.85 130.04 0.85L130.04 0.85ZM150.84 0L150.84-37.9 159.84-37.9 159.84 0 150.84 0ZM180.34-23.15L198.59-23.15 198.59-2.65Q195.54-0.95 192.06-0.05 188.59 0.85 185.54 0.85L185.54 0.85Q179.09 0.85 174.59-1.63 170.09-4.1 167.84-8.55 165.59-13 165.59-18.9L165.59-18.9Q165.59-24.5 167.76-28.95 169.94-33.4 174.41-36 178.89-38.6 185.54-38.6L185.54-38.6Q188.84-38.6 191.11-37.98 193.39-37.35 196.24-36.1L196.24-36.1 196.24-28.15Q193.69-29.55 191.21-30.28 188.74-31 185.54-31L185.54-31Q182.19-31 179.71-29.48 177.24-27.95 175.96-25.23 174.69-22.5 174.69-19.05L174.69-19.05Q174.69-13.45 177.54-10.1 180.39-6.75 185.54-6.75L185.54-6.75Q187.84-6.75 189.79-7.45L189.79-7.45 189.79-15.45 180.34-15.45 180.34-23.15ZM229.54-37.9L238.54-37.9 238.54 0 228.19 0 214.59-23.3 214.59 0 205.59 0 205.59-37.9 215.94-37.9 229.54-14.6 229.54-37.9Z" opacity="1" transform="matrix(1,0,0,1,0,0)" fill="#374151" class="undefined-text-0" data-fill-palette-color="primary" id="text-0"></path></svg></g></svg></g></svg></g></svg></g><g transform="matrix(1,0,0,1,143.45461304030135,0)"><svg viewBox="0 0 108.61077391939725 90.96693038599452" height="90.96693038599452" width="108.61077391939725"><g><svg xmlns="http://www.w3.org/2000/svg" xmlns:xlink="http://www.w3.org/1999/xlink" version="1.1" x="8" y="0" viewBox="0 0.42600002884864807 48 47.14799880981445" enable-background="new 0 0 48 48" xml:space="preserve" height="90.96693038599452" width="92.61077391939725" class="icon-icon-0" data-fill-palette-color="accent" id="icon-0"><g fill="#374151" data-fill-palette-color="accent"><path d="M19.26 33.73H8.83c-0.776 0-1.406 0.629-1.406 1.406v11.031c0 0.777 0.63 1.406 1.406 1.406s1.406-0.629 1.406-1.406v-9.625h7.617v9.625c0 0.777 0.63 1.406 1.406 1.406s1.406-0.629 1.406-1.406V35.137C20.666 34.359 20.036 33.73 19.26 33.73z" fill="#374151" data-fill-palette-color="accent"></path><path d="M42.376 0.426H37.28v32.671H48V6.05C48 2.949 45.478 0.426 42.376 0.426zM40.909 18.499c0 0.518-0.419 0.937-0.938 0.937-0.518 0-0.938-0.419-0.938-0.937v-3.396c0-0.518 0.42-0.937 0.938-0.937 0.519 0 0.938 0.419 0.938 0.937V18.499z" fill="#374151" data-fill-palette-color="accent"></path><path d="M24.688 33.098h10.718V0.426h-5.094c-3.102 0-5.624 2.522-5.624 5.624v18.252H13.703c0.152-0.226 0.242-0.497 0.242-0.789 0-0.777-0.63-1.406-1.406-1.406h-1.853v-3.285h3.828c0.283 0 0.551-0.128 0.729-0.348 0.178-0.22 0.246-0.509 0.187-0.786l-1.874-8.714c-0.093-0.432-0.475-0.74-0.917-0.74H5.919c-0.442 0-0.824 0.309-0.916 0.74l-1.875 8.714c-0.06 0.277 0.009 0.566 0.187 0.786 0.179 0.22 0.447 0.348 0.729 0.348h3.83v3.285H6.02c-0.776 0-1.406 0.629-1.406 1.406 0 0.292 0.09 0.563 0.243 0.789h-3.45C0.63 24.303 0 24.932 0 25.709v20.459c0 0.777 0.63 1.406 1.406 1.406s1.406-0.629 1.406-1.406V27.115h21.876V33.098zM31.532 15.104c0-0.518 0.419-0.937 0.938-0.937 0.518 0 0.937 0.419 0.937 0.937v3.396c0 0.518-0.419 0.937-0.937 0.937-0.519 0-0.938-0.419-0.938-0.937V15.104z" fill="#374151" data-fill-palette-color="accent"></path><path d="M24.688 37.943v0.139 8.086c0 0.777 0.63 1.406 1.406 1.406s1.405-0.629 1.405-1.406v-3.223c0.829 0.48 1.787 0.76 2.813 0.76h12.063c1.025 0 1.983-0.279 2.812-0.76v3.223c0 0.777 0.63 1.406 1.406 1.406S48 46.945 48 46.168v-8.086-0.139-2.971H24.688V37.943z" fill="#374151" data-fill-palette-color="accent"></path></g></svg></g></svg></g><g><rect width="143.45461304030135" height="5.935956338698367" y="84.03097404729616" x="252.0653869596986" fill="#374151" data-fill-palette-color="accent"></rect><rect width="143.45461304030135" height="5.935956338698367" y="84.03097404729616" x="0" fill="#374151" data-fill-palette-color="accent"></rect><rect width="143.45461304030135" height="5.935956338698367" y="72.15906136989942" x="252.0653869596986" fill="#374151" data-fill-palette-color="accent"></rect><rect width="143.45461304030135" height="5.935956338698367" y="72.15906136989942" x="0" fill="#374151" data-fill-palette-color="accent"></rect></g></svg></g><defs></defs></svg><rect width="395.52" height="172.3287534278169" fill="none" stroke="none" visibility="hidden"></rect></g></svg></g></svg>