<svg width="594" height="110" viewBox="0 0 594 110" fill="none" xmlns="http://www.w3.org/2000/svg">
<path d="M5.76 24.136C5.376 23.112 4.992 22.3653 4.608 21.896C4.26667 21.384 3.79733 21.0427 3.2 20.872C2.60267 20.7013 1.728 20.616 0.576 20.616V18.76H15.936V20.616H12.8C11.776 20.616 11.264 20.9787 11.264 21.704C11.264 21.8747 11.3493 22.2587 11.52 22.856L22.272 53.768L22.464 53.832L33.088 22.984C33.216 22.5147 33.28 22.1093 33.28 21.768C33.28 21.384 33.152 21.1067 32.896 20.936C32.6827 20.7227 32.2987 20.616 31.744 20.616H28.736V18.76H40.96V20.616C39.5093 20.616 38.464 20.8293 37.824 21.256C37.184 21.6827 36.5867 22.5787 36.032 23.944L22.336 61H18.688L5.76 24.136ZM70.6585 55.624C71.1278 57.1173 71.6398 58.0773 72.1945 58.504C72.7918 58.9307 73.8585 59.144 75.3945 59.144V61H60.7385V59.144H63.1705C64.4078 59.144 65.0265 58.6107 65.0265 57.544C65.0265 57.1173 64.9625 56.6907 64.8345 56.264L60.8025 45H46.5945L42.5625 56.456C42.3918 57.0533 42.3065 57.48 42.3065 57.736C42.3065 58.6747 42.9038 59.144 44.0985 59.144H46.4025V61H35.0105V59.144C36.1198 59.144 36.9732 59.0373 37.5705 58.824C38.1678 58.568 38.6372 58.184 38.9785 57.672C39.3625 57.1173 39.7465 56.2853 40.1305 55.176L53.6985 18.76H57.2825L70.6585 55.624ZM60.0345 42.824L53.7625 25.416H53.5705L47.4265 42.824H60.0345ZM79.1375 59.144C80.7588 59.144 81.8895 59.0587 82.5295 58.888C83.2122 58.7173 83.6388 58.3973 83.8095 57.928C83.9802 57.416 84.0655 56.5413 84.0655 55.304V24.456C84.0655 23.2613 83.9588 22.4293 83.7455 21.96C83.5748 21.448 83.1482 21.1067 82.4655 20.936C81.8255 20.7227 80.7162 20.616 79.1375 20.616V18.76H95.0095V20.616C93.3882 20.616 92.2362 20.7227 91.5535 20.936C90.8708 21.1067 90.4228 21.448 90.2095 21.96C90.0388 22.4293 89.9535 23.2613 89.9535 24.456V53.704C89.9535 55.2827 90.1455 56.4347 90.5295 57.16C90.9562 57.8427 91.6815 58.2907 92.7055 58.504C93.7295 58.7173 95.3722 58.824 97.6335 58.824C100.151 58.824 102.092 58.5893 103.458 58.12C104.823 57.6507 105.89 56.8187 106.658 55.624C107.426 54.3867 108.087 52.5307 108.642 50.056H110.306L109.602 61H79.1375V59.144ZM116.013 59.144C117.634 59.144 118.765 59.0587 119.405 58.888C120.087 58.7173 120.514 58.3973 120.685 57.928C120.855 57.416 120.941 56.5413 120.941 55.304V24.456C120.941 23.2187 120.834 22.3653 120.621 21.896C120.45 21.384 120.045 21.0427 119.405 20.872C118.765 20.7013 117.634 20.616 116.013 20.616V18.76H135.021C141.719 18.8453 146.861 20.616 150.444 24.072C154.029 27.528 155.821 32.5627 155.821 39.176C155.821 46.344 153.879 51.784 149.997 55.496C146.114 59.1653 140.61 61 133.485 61H116.013V59.144ZM132.909 58.888C143.618 58.888 148.972 52.4027 148.972 39.432C148.972 33.6293 147.714 29.1067 145.197 25.864C142.722 22.6213 138.818 20.9787 133.485 20.936C131.437 20.936 129.965 21 129.069 21.128C128.173 21.256 127.575 21.5333 127.277 21.96C126.978 22.3867 126.829 23.0907 126.829 24.072V53.96C126.829 55.3253 127.021 56.3707 127.405 57.096C127.789 57.7787 128.407 58.248 129.26 58.504C130.114 58.76 131.33 58.888 132.909 58.888ZM161.62 59.144H163.476C164.756 59.144 165.566 58.9307 165.908 58.504C166.292 58.0347 166.484 57.1173 166.484 55.752V24.264C166.484 23.1547 166.377 22.3653 166.164 21.896C165.95 21.4267 165.524 21.1067 164.884 20.936C164.244 20.7653 163.156 20.6587 161.62 20.616V18.76H172.884L185.812 50.184H185.876L198.804 18.76H209.556V20.616C208.02 20.6587 206.932 20.7653 206.292 20.936C205.652 21.1067 205.225 21.4267 205.012 21.896C204.798 22.3653 204.692 23.1547 204.692 24.264V55.56C204.692 56.6267 204.798 57.416 205.012 57.928C205.225 58.3973 205.652 58.7173 206.292 58.888C206.974 59.0587 208.062 59.144 209.556 59.144V61H193.94V59.144C195.518 59.144 196.649 59.0587 197.332 58.888C198.014 58.6747 198.441 58.3333 198.612 57.864C198.825 57.3947 198.932 56.6267 198.932 55.56V24.52H198.804L184.596 59.336H183.444L169.044 24.52H168.916V55.752C168.916 56.8187 168.958 57.5653 169.044 57.992C169.172 58.4187 169.449 58.7173 169.876 58.888C170.345 59.0587 171.092 59.144 172.116 59.144H174.484V61H161.62V59.144ZM248.909 55.624C249.378 57.1173 249.89 58.0773 250.444 58.504C251.042 58.9307 252.109 59.144 253.645 59.144V61H238.989V59.144H241.421C242.658 59.144 243.277 58.6107 243.277 57.544C243.277 57.1173 243.213 56.6907 243.085 56.264L239.053 45H224.845L220.812 56.456C220.642 57.0533 220.557 57.48 220.557 57.736C220.557 58.6747 221.154 59.144 222.349 59.144H224.653V61H213.261V59.144C214.37 59.144 215.223 59.0373 215.821 58.824C216.418 58.568 216.887 58.184 217.229 57.672C217.613 57.1173 217.997 56.2853 218.381 55.176L231.949 18.76H235.533L248.909 55.624ZM238.285 42.824L232.013 25.416H231.821L225.677 42.824H238.285ZM264.3 25.032H264.172V55.816C264.172 57.0107 264.406 57.864 264.876 58.376C265.388 58.888 266.22 59.144 267.372 59.144H269.868V61H256.812V59.144H258.668C259.692 59.144 260.438 58.888 260.908 58.376C261.42 57.8213 261.676 56.968 261.676 55.816V24.264C261.676 23.1547 261.569 22.3653 261.356 21.896C261.142 21.4267 260.716 21.1067 260.076 20.936C259.436 20.7653 258.326 20.6587 256.748 20.616V18.76H267.5L289.068 51.528H289.26V23.688C289.26 21.64 288.172 20.616 285.996 20.616H283.5V18.76H296.556V20.616H294.636C292.673 20.616 291.692 21.64 291.692 23.688V61.384H288.556L264.3 25.032ZM317.638 59.144C319.259 59.144 320.39 59.0587 321.03 58.888C321.712 58.7173 322.139 58.3973 322.31 57.928C322.48 57.416 322.566 56.5413 322.566 55.304V24.456C322.566 23.2187 322.459 22.3653 322.246 21.896C322.075 21.384 321.67 21.0427 321.03 20.872C320.39 20.7013 319.259 20.616 317.638 20.616V18.76H336.646C343.344 18.8453 348.486 20.616 352.069 24.072C355.654 27.528 357.446 32.5627 357.446 39.176C357.446 46.344 355.504 51.784 351.622 55.496C347.739 59.1653 342.235 61 335.11 61H317.638V59.144ZM334.534 58.888C345.243 58.888 350.597 52.4027 350.597 39.432C350.597 33.6293 349.339 29.1067 346.822 25.864C344.347 22.6213 340.443 20.9787 335.11 20.936C333.062 20.936 331.59 21 330.694 21.128C329.798 21.256 329.2 21.5333 328.902 21.96C328.603 22.3867 328.454 23.0907 328.454 24.072V53.96C328.454 55.3253 328.646 56.3707 329.03 57.096C329.414 57.7787 330.032 58.248 330.885 58.504C331.739 58.76 332.955 58.888 334.534 58.888ZM364.013 59.144C365.634 59.144 366.765 59.0587 367.405 58.888C368.087 58.7173 368.514 58.3973 368.685 57.928C368.855 57.416 368.941 56.5413 368.941 55.304V24.456C368.941 23.2187 368.834 22.3653 368.621 21.896C368.45 21.384 368.045 21.0427 367.405 20.872C366.765 20.7013 365.634 20.616 364.013 20.616V18.76H393.773V29H392.109C391.725 26.7387 391.255 25.0747 390.701 24.008C390.146 22.8987 389.271 22.1093 388.077 21.64C386.882 21.1707 385.111 20.936 382.765 20.936H377.133C376.151 20.936 375.511 21.0853 375.213 21.384C374.957 21.64 374.829 22.2587 374.829 23.24V37.768H382.125C383.746 37.768 384.941 37.6187 385.709 37.32C386.477 36.9787 386.989 36.4667 387.245 35.784C387.543 35.1013 387.821 33.992 388.077 32.456H389.613V45.512H388.077C387.821 44.0187 387.543 42.9307 387.245 42.248C386.989 41.5653 386.477 41.0533 385.709 40.712C384.941 40.3707 383.746 40.2 382.125 40.2H374.829V53.896C374.829 55.3893 375.021 56.4773 375.405 57.16C375.789 57.8 376.493 58.248 377.517 58.504C378.583 58.76 380.29 58.888 382.637 58.888C385.325 58.888 387.394 58.6533 388.845 58.184C390.295 57.7147 391.426 56.8613 392.237 55.624C393.047 54.344 393.73 52.4667 394.285 49.992H395.949L395.245 61H364.013V59.144ZM401.319 48.712H402.983C403.452 51.6987 404.69 54.2587 406.695 56.392C408.7 58.5253 411.26 59.592 414.375 59.592C417.063 59.592 419.154 58.8027 420.647 57.224C422.183 55.6453 422.951 53.6613 422.951 51.272C422.951 49.2667 422.354 47.6027 421.159 46.28C419.964 44.9573 418.108 43.7413 415.591 42.632L412.647 41.416C409.106 39.9227 406.418 38.2587 404.583 36.424C402.748 34.5893 401.831 32.1147 401.831 29C401.831 25.416 403.047 22.6853 405.479 20.808C407.911 18.9307 411.026 17.992 414.823 17.992C417.255 17.992 419.41 18.44 421.287 19.336C422.055 19.6347 422.588 19.784 422.887 19.784C423.228 19.784 423.484 19.656 423.655 19.4C423.826 19.1013 423.975 18.696 424.103 18.184H425.511L426.151 29.512H424.487C424.06 26.696 423.058 24.4347 421.479 22.728C419.9 21.0213 417.724 20.168 414.951 20.168C412.69 20.168 410.876 20.7867 409.511 22.024C408.188 23.2187 407.527 25.0107 407.527 27.4C407.527 29.448 408.124 31.0693 409.319 32.264C410.514 33.4587 412.348 34.5893 414.823 35.656L417.895 36.936C420.156 37.9173 422.034 38.8987 423.527 39.88C425.063 40.8613 426.322 42.1627 427.303 43.784C428.284 45.3627 428.775 47.304 428.775 49.608C428.775 53.3627 427.474 56.328 424.871 58.504C422.311 60.68 418.834 61.768 414.439 61.768C412.818 61.768 411.474 61.64 410.407 61.384C409.34 61.1707 408.21 60.8507 407.015 60.424C406.247 60.0827 405.65 59.912 405.223 59.912C404.754 59.912 404.391 60.0613 404.135 60.36C403.922 60.6587 403.794 61.0427 403.751 61.512H402.151L401.319 48.712ZM434.95 59.144C436.571 59.144 437.702 59.0587 438.342 58.888C439.025 58.6747 439.451 58.3333 439.622 57.864C439.793 57.352 439.878 56.4987 439.878 55.304V24.52C439.878 23.2827 439.771 22.4293 439.558 21.96C439.387 21.448 438.961 21.1067 438.278 20.936C437.638 20.7227 436.529 20.616 434.95 20.616V18.76H450.694V20.616C449.073 20.616 447.942 20.7227 447.302 20.936C446.662 21.1067 446.235 21.448 446.022 21.96C445.851 22.4293 445.766 23.2827 445.766 24.52V55.304C445.766 56.4987 445.851 57.352 446.022 57.864C446.235 58.3333 446.662 58.6747 447.302 58.888C447.985 59.0587 449.115 59.144 450.694 59.144V61H434.95V59.144ZM474.915 61.768C470.819 61.768 467.299 60.8933 464.355 59.144C461.411 57.3947 459.15 54.92 457.571 51.72C456.035 48.4773 455.267 44.6587 455.267 40.264C455.267 35.784 456.078 31.88 457.699 28.552C459.32 25.1813 461.646 22.5787 464.675 20.744C467.747 18.9093 471.395 17.992 475.619 17.992C477.454 17.992 478.99 18.1413 480.227 18.44C481.464 18.7387 482.702 19.144 483.939 19.656C485.091 20.1253 485.902 20.36 486.371 20.36C487.139 20.36 487.63 20.0613 487.843 19.464L488.163 18.76H489.699L490.339 30.28H488.611C487.928 27.592 486.627 25.2453 484.707 23.24C482.787 21.192 480.014 20.168 476.387 20.168C472.803 20.168 469.944 21.2133 467.811 23.304C465.678 25.352 464.184 27.8907 463.331 30.92C462.478 33.9067 462.051 36.936 462.051 40.008C462.051 43.4213 462.563 46.6213 463.587 49.608C464.611 52.552 466.211 54.9627 468.387 56.84C470.606 58.6747 473.4 59.592 476.771 59.592C478.691 59.592 480.376 59.272 481.827 58.632C483.278 57.9493 484.131 56.7973 484.387 55.176V46.728C484.387 45.576 484.131 44.7653 483.619 44.296C483.107 43.8267 482.168 43.592 480.803 43.592H479.715V41.736H493.539V43.592H492.643C491.832 43.592 491.235 43.8053 490.851 44.232C490.467 44.616 490.275 45.2987 490.275 46.28V61.128H489.059C488.846 60.5733 488.568 60.168 488.227 59.912C487.928 59.6133 487.502 59.464 486.947 59.464C486.435 59.464 485.432 59.6987 483.939 60.168C482.488 60.6373 481.059 61.0213 479.651 61.32C478.286 61.6187 476.707 61.768 474.915 61.768ZM504.487 25.032H504.359V55.816C504.359 57.0107 504.594 57.864 505.063 58.376C505.575 58.888 506.407 59.144 507.559 59.144H510.055V61H496.999V59.144H498.855C499.879 59.144 500.626 58.888 501.095 58.376C501.607 57.8213 501.863 56.968 501.863 55.816V24.264C501.863 23.1547 501.756 22.3653 501.543 21.896C501.33 21.4267 500.903 21.1067 500.263 20.936C499.623 20.7653 498.514 20.6587 496.935 20.616V18.76H507.687L529.255 51.528H529.447V23.688C529.447 21.64 528.359 20.616 526.183 20.616H523.687V18.76H536.743V20.616H534.823C532.86 20.616 531.879 21.64 531.879 23.688V61.384H528.743L504.487 25.032Z" fill="#212121"/>
<path d="M180.392 103C180.157 103 179.933 102.936 179.72 102.808C179.528 102.659 179.432 102.445 179.432 102.168V80.408C179.432 80.1307 179.539 79.928 179.752 79.8C179.965 79.672 180.211 79.608 180.488 79.608C180.744 79.608 180.979 79.672 181.192 79.8C181.427 79.928 181.544 80.1307 181.544 80.408V101.048H190.664C190.92 101.048 191.101 101.155 191.208 101.368C191.315 101.56 191.368 101.773 191.368 102.008C191.368 102.264 191.315 102.499 191.208 102.712C191.101 102.904 190.92 103 190.664 103H180.392ZM200.055 103.192C198.796 103.192 197.665 102.968 196.663 102.52C195.66 102.072 194.86 101.347 194.263 100.344C193.665 99.3413 193.367 98.008 193.367 96.344V80.408C193.367 80.1307 193.473 79.928 193.687 79.8C193.9 79.672 194.145 79.608 194.423 79.608C194.7 79.608 194.945 79.672 195.159 79.8C195.372 79.928 195.479 80.1307 195.479 80.408V96.344C195.479 98.0293 195.884 99.2667 196.695 100.056C197.505 100.845 198.625 101.24 200.055 101.24C201.505 101.24 202.636 100.845 203.447 100.056C204.257 99.2667 204.663 98.0293 204.663 96.344V80.408C204.663 80.1307 204.769 79.928 204.983 79.8C205.196 79.672 205.441 79.608 205.719 79.608C205.996 79.608 206.241 79.672 206.455 79.8C206.668 79.928 206.775 80.1307 206.775 80.408V96.344C206.775 98.008 206.476 99.3413 205.879 100.344C205.303 101.347 204.503 102.072 203.479 102.52C202.455 102.968 201.313 103.192 200.055 103.192ZM211.11 103.064C210.918 103.064 210.715 103.011 210.502 102.904C210.31 102.797 210.15 102.669 210.022 102.52C209.894 102.371 209.83 102.2 209.83 102.008C209.83 101.859 209.872 101.688 209.958 101.496L215.494 91.288L210.086 81.144C209.936 80.9093 209.862 80.696 209.862 80.504C209.862 80.312 209.926 80.152 210.054 80.024C210.182 79.8747 210.331 79.7573 210.502 79.672C210.694 79.5867 210.896 79.544 211.11 79.544C211.387 79.544 211.611 79.6613 211.782 79.896C211.952 80.1307 212.102 80.376 212.23 80.632L216.806 89.432L221.414 80.632C221.542 80.376 221.691 80.1307 221.862 79.896C222.054 79.6613 222.278 79.544 222.534 79.544C222.747 79.544 222.939 79.5867 223.11 79.672C223.302 79.7573 223.451 79.8747 223.558 80.024C223.686 80.152 223.75 80.312 223.75 80.504C223.75 80.696 223.686 80.9093 223.558 81.144L218.118 91.288L223.654 101.496C223.76 101.688 223.814 101.859 223.814 102.008C223.814 102.2 223.75 102.371 223.622 102.52C223.494 102.669 223.334 102.797 223.142 102.904C222.95 103.011 222.747 103.064 222.534 103.064C222.32 103.064 222.128 102.947 221.958 102.712C221.787 102.477 221.648 102.264 221.542 102.072L216.806 93.08L212.102 102.072C211.995 102.264 211.856 102.477 211.686 102.712C211.536 102.947 211.344 103.064 211.11 103.064ZM233.555 103.192C232.296 103.192 231.165 102.968 230.163 102.52C229.16 102.072 228.36 101.347 227.763 100.344C227.165 99.3413 226.867 98.008 226.867 96.344V80.408C226.867 80.1307 226.973 79.928 227.187 79.8C227.4 79.672 227.645 79.608 227.923 79.608C228.2 79.608 228.445 79.672 228.659 79.8C228.872 79.928 228.979 80.1307 228.979 80.408V96.344C228.979 98.0293 229.384 99.2667 230.195 100.056C231.005 100.845 232.125 101.24 233.555 101.24C235.005 101.24 236.136 100.845 236.947 100.056C237.757 99.2667 238.163 98.0293 238.163 96.344V80.408C238.163 80.1307 238.269 79.928 238.483 79.8C238.696 79.672 238.941 79.608 239.219 79.608C239.496 79.608 239.741 79.672 239.955 79.8C240.168 79.928 240.275 80.1307 240.275 80.408V96.344C240.275 98.008 239.976 99.3413 239.379 100.344C238.803 101.347 238.003 102.072 236.979 102.52C235.955 102.968 234.813 103.192 233.555 103.192ZM257.25 103.064C257.015 103.064 256.802 102.947 256.61 102.712C256.418 102.456 256.258 102.2 256.13 101.944L251.202 92.344H247.138V102.168C247.138 102.445 247.02 102.659 246.786 102.808C246.572 102.936 246.338 103 246.082 103C245.804 103 245.559 102.936 245.346 102.808C245.132 102.659 245.026 102.445 245.026 102.168V80.408C245.026 80.1947 245.1 80.0133 245.25 79.864C245.399 79.7147 245.591 79.6293 245.826 79.608H251.49C252.748 79.608 253.9 79.8 254.946 80.184C255.991 80.568 256.823 81.2187 257.442 82.136C258.082 83.0533 258.402 84.312 258.402 85.912C258.402 87.2347 258.178 88.3227 257.73 89.176C257.303 90.0293 256.706 90.6907 255.938 91.16C255.191 91.608 254.348 91.9173 253.41 92.088L258.338 101.56C258.402 101.624 258.434 101.699 258.434 101.784C258.455 101.848 258.466 101.912 258.466 101.976C258.466 102.147 258.402 102.317 258.274 102.488C258.167 102.659 258.018 102.797 257.826 102.904C257.634 103.011 257.442 103.064 257.25 103.064ZM247.138 90.52H251.49C252.919 90.52 254.071 90.1787 254.946 89.496C255.842 88.792 256.29 87.64 256.29 86.04C256.29 84.4187 255.842 83.2667 254.946 82.584C254.071 81.9013 252.919 81.56 251.49 81.56H247.138V90.52ZM267.885 103C267.63 103 267.384 102.936 267.15 102.808C266.936 102.659 266.83 102.445 266.83 102.168V94.04C266.83 93.9333 266.808 93.848 266.766 93.784L260.142 81.08C260.099 80.9733 260.056 80.8773 260.014 80.792C259.992 80.6853 259.982 80.5893 259.982 80.504C259.982 80.3333 260.046 80.184 260.174 80.056C260.302 79.9067 260.451 79.8 260.622 79.736C260.814 79.6507 260.995 79.608 261.166 79.608C261.336 79.608 261.486 79.6613 261.614 79.768C261.763 79.8747 261.891 80.0347 261.998 80.248L267.885 91.928L273.806 80.248C273.934 80.0347 274.062 79.8747 274.19 79.768C274.318 79.6613 274.467 79.608 274.638 79.608C274.83 79.608 275.011 79.6507 275.182 79.736C275.352 79.8 275.491 79.9067 275.597 80.056C275.726 80.184 275.79 80.3333 275.79 80.504C275.79 80.5893 275.779 80.6853 275.758 80.792C275.736 80.8773 275.704 80.9733 275.662 81.08L269.006 93.784C268.963 93.848 268.942 93.9333 268.942 94.04V102.168C268.942 102.445 268.835 102.659 268.622 102.808C268.408 102.936 268.163 103 267.885 103ZM286.269 103C285.992 103 285.747 102.936 285.533 102.808C285.32 102.659 285.213 102.445 285.213 102.168V80.408C285.213 80.1947 285.288 80.0133 285.437 79.864C285.608 79.7147 285.832 79.6293 286.109 79.608H291.997C293.235 79.608 294.355 79.832 295.357 80.28C296.36 80.728 297.149 81.4533 297.725 82.456C298.301 83.4373 298.589 84.7493 298.589 86.392V86.712C298.589 88.376 298.291 89.7093 297.693 90.712C297.117 91.6933 296.317 92.4187 295.293 92.888C294.291 93.336 293.171 93.56 291.933 93.56H287.325V102.168C287.325 102.445 287.208 102.659 286.973 102.808C286.76 102.936 286.525 103 286.269 103ZM287.325 91.704H291.933C293.363 91.704 294.472 91.3093 295.261 90.52C296.072 89.7093 296.477 88.472 296.477 86.808V86.456C296.477 84.7707 296.072 83.5333 295.261 82.744C294.472 81.9547 293.363 81.56 291.933 81.56H287.325V91.704ZM314.312 103.064C314.078 103.064 313.864 102.947 313.672 102.712C313.48 102.456 313.32 102.2 313.192 101.944L308.264 92.344H304.2V102.168C304.2 102.445 304.083 102.659 303.848 102.808C303.635 102.936 303.4 103 303.144 103C302.867 103 302.622 102.936 302.408 102.808C302.195 102.659 302.088 102.445 302.088 102.168V80.408C302.088 80.1947 302.163 80.0133 302.312 79.864C302.462 79.7147 302.654 79.6293 302.888 79.608H308.552C309.811 79.608 310.963 79.8 312.008 80.184C313.054 80.568 313.886 81.2187 314.504 82.136C315.144 83.0533 315.464 84.312 315.464 85.912C315.464 87.2347 315.24 88.3227 314.792 89.176C314.366 90.0293 313.768 90.6907 313 91.16C312.254 91.608 311.411 91.9173 310.472 92.088L315.4 101.56C315.464 101.624 315.496 101.699 315.496 101.784C315.518 101.848 315.528 101.912 315.528 101.976C315.528 102.147 315.464 102.317 315.336 102.488C315.23 102.659 315.08 102.797 314.888 102.904C314.696 103.011 314.504 103.064 314.312 103.064ZM304.2 90.52H308.552C309.982 90.52 311.134 90.1787 312.008 89.496C312.904 88.792 313.352 87.64 313.352 86.04C313.352 84.4187 312.904 83.2667 312.008 82.584C311.134 81.9013 309.982 81.56 308.552 81.56H304.2V90.52ZM325.395 103.192C324.157 103.192 323.037 102.968 322.035 102.52C321.032 102.072 320.232 101.347 319.635 100.344C319.037 99.3413 318.739 98.008 318.739 96.344V86.456C318.739 84.792 319.037 83.4587 319.635 82.456C320.232 81.4533 321.021 80.728 322.003 80.28C323.005 79.832 324.136 79.608 325.395 79.608C326.653 79.608 327.784 79.832 328.787 80.28C329.789 80.728 330.589 81.4533 331.187 82.456C331.784 83.4587 332.083 84.792 332.083 86.456V96.344C332.083 98.008 331.784 99.3413 331.187 100.344C330.589 101.347 329.789 102.072 328.787 102.52C327.784 102.968 326.653 103.192 325.395 103.192ZM325.395 101.24C326.824 101.24 327.933 100.845 328.723 100.056C329.533 99.2667 329.939 98.0293 329.939 96.344V86.456C329.939 84.7707 329.533 83.5333 328.723 82.744C327.933 81.9547 326.824 81.56 325.395 81.56C323.965 81.56 322.856 81.9547 322.067 82.744C321.277 83.5333 320.883 84.7707 320.883 86.456V96.344C320.883 98.0293 321.277 99.2667 322.067 100.056C322.856 100.845 323.965 101.24 325.395 101.24ZM337.642 103C337.343 103 337.109 102.925 336.938 102.776C336.767 102.627 336.682 102.435 336.682 102.2V80.408C336.682 80.1733 336.767 79.9813 336.938 79.832C337.109 79.6827 337.343 79.608 337.642 79.608H343.306C344.565 79.608 345.695 79.832 346.698 80.28C347.722 80.728 348.522 81.4533 349.098 82.456C349.695 83.4587 349.994 84.792 349.994 86.456V96.152C349.994 97.816 349.695 99.1493 349.098 100.152C348.522 101.155 347.722 101.88 346.698 102.328C345.695 102.776 344.565 103 343.306 103H337.642ZM338.794 101.048H343.306C344.735 101.048 345.855 100.653 346.666 99.864C347.477 99.0747 347.882 97.8373 347.882 96.152V86.456C347.882 84.7707 347.477 83.5333 346.666 82.744C345.855 81.9547 344.735 81.56 343.306 81.56H338.794V101.048ZM361.148 103.192C359.89 103.192 358.759 102.968 357.756 102.52C356.754 102.072 355.954 101.347 355.356 100.344C354.759 99.3413 354.46 98.008 354.46 96.344V80.408C354.46 80.1307 354.567 79.928 354.78 79.8C354.994 79.672 355.239 79.608 355.516 79.608C355.794 79.608 356.039 79.672 356.252 79.8C356.466 79.928 356.572 80.1307 356.572 80.408V96.344C356.572 98.0293 356.978 99.2667 357.788 100.056C358.599 100.845 359.719 101.24 361.148 101.24C362.599 101.24 363.73 100.845 364.54 100.056C365.351 99.2667 365.756 98.0293 365.756 96.344V80.408C365.756 80.1307 365.863 79.928 366.076 79.8C366.29 79.672 366.535 79.608 366.812 79.608C367.09 79.608 367.335 79.672 367.548 79.8C367.762 79.928 367.868 80.1307 367.868 80.408V96.344C367.868 98.008 367.57 99.3413 366.972 100.344C366.396 101.347 365.596 102.072 364.572 102.52C363.548 102.968 362.407 103.192 361.148 103.192ZM379.02 103.192C377.825 103.192 376.716 102.968 375.692 102.52C374.668 102.072 373.857 101.347 373.26 100.344C372.662 99.3413 372.364 98.008 372.364 96.344V86.456C372.364 84.792 372.673 83.4587 373.292 82.456C373.91 81.4533 374.721 80.728 375.724 80.28C376.748 79.832 377.868 79.608 379.084 79.608C380.492 79.608 381.686 79.8533 382.668 80.344C383.649 80.8347 384.396 81.4853 384.908 82.296C385.441 83.1067 385.708 84.0027 385.708 84.984C385.708 85.496 385.612 85.8373 385.42 86.008C385.249 86.1573 384.993 86.232 384.652 86.232C384.268 86.232 383.99 86.1573 383.82 86.008C383.67 85.8373 383.585 85.6453 383.564 85.432C383.564 85.0907 383.5 84.7067 383.372 84.28C383.265 83.832 383.052 83.4053 382.732 83C382.433 82.5733 381.985 82.232 381.388 81.976C380.812 81.6987 380.054 81.56 379.116 81.56C377.622 81.56 376.481 81.9653 375.692 82.776C374.902 83.5653 374.508 84.792 374.508 86.456V96.344C374.508 98.0293 374.902 99.2667 375.692 100.056C376.502 100.845 377.676 101.24 379.212 101.24C380.172 101.24 380.929 101.112 381.484 100.856C382.038 100.579 382.454 100.248 382.732 99.864C383.009 99.4587 383.201 99.032 383.308 98.584C383.436 98.1147 383.521 97.688 383.564 97.304C383.606 97.0267 383.702 96.824 383.852 96.696C384.022 96.5467 384.278 96.472 384.62 96.472C384.982 96.472 385.249 96.568 385.42 96.76C385.612 96.9307 385.708 97.272 385.708 97.784C385.708 98.744 385.441 99.64 384.908 100.472C384.374 101.283 383.606 101.944 382.604 102.456C381.622 102.947 380.428 103.192 379.02 103.192ZM394.648 103C394.371 103 394.125 102.936 393.912 102.808C393.699 102.659 393.592 102.445 393.592 102.168V81.592H388.216C387.96 81.592 387.757 81.496 387.608 81.304C387.459 81.0907 387.384 80.856 387.384 80.6C387.384 80.344 387.459 80.12 387.608 79.928C387.757 79.7147 387.96 79.608 388.216 79.608H401.048C401.325 79.608 401.528 79.7147 401.656 79.928C401.784 80.12 401.848 80.3333 401.848 80.568C401.848 80.824 401.784 81.0587 401.656 81.272C401.528 81.4853 401.325 81.592 401.048 81.592H395.704V102.168C395.704 102.445 395.587 102.659 395.352 102.808C395.139 102.936 394.904 103 394.648 103ZM409.712 103.224C408.347 103.224 407.173 103.021 406.192 102.616C405.211 102.189 404.453 101.709 403.92 101.176C403.408 100.621 403.152 100.152 403.152 99.768C403.152 99.5973 403.195 99.416 403.28 99.224C403.387 99.032 403.515 98.8827 403.664 98.776C403.813 98.648 403.963 98.584 404.112 98.584C404.325 98.584 404.539 98.7227 404.752 99C404.987 99.256 405.285 99.5653 405.648 99.928C406.032 100.269 406.533 100.579 407.152 100.856C407.771 101.112 408.581 101.24 409.584 101.24C410.587 101.24 411.44 101.08 412.144 100.76C412.848 100.419 413.392 99.928 413.776 99.288C414.16 98.6267 414.352 97.8053 414.352 96.824C414.352 95.8 414.16 94.9787 413.776 94.36C413.392 93.7413 412.88 93.2293 412.24 92.824C411.621 92.4187 410.939 92.0773 410.192 91.8C409.445 91.5227 408.688 91.2347 407.92 90.936C407.173 90.6373 406.48 90.2747 405.84 89.848C405.2 89.4 404.688 88.824 404.304 88.12C403.92 87.3947 403.728 86.4773 403.728 85.368C403.728 84.216 403.941 83.2667 404.368 82.52C404.795 81.752 405.339 81.1547 406 80.728C406.683 80.3013 407.419 80.0027 408.208 79.832C408.997 79.64 409.765 79.544 410.512 79.544C411.109 79.544 411.717 79.5973 412.336 79.704C412.976 79.7893 413.563 79.9173 414.096 80.088C414.629 80.2587 415.056 80.472 415.376 80.728C415.717 80.9627 415.888 81.2293 415.888 81.528C415.888 81.656 415.845 81.816 415.76 82.008C415.696 82.1787 415.6 82.3387 415.472 82.488C415.344 82.6373 415.173 82.712 414.96 82.712C414.768 82.712 414.501 82.616 414.16 82.424C413.819 82.2107 413.349 82.008 412.752 81.816C412.176 81.6027 411.419 81.496 410.48 81.496C409.712 81.496 408.965 81.6027 408.24 81.816C407.536 82.0293 406.96 82.4133 406.512 82.968C406.064 83.5013 405.84 84.2373 405.84 85.176C405.84 86.0293 406.032 86.7227 406.416 87.256C406.821 87.768 407.333 88.184 407.952 88.504C408.592 88.824 409.285 89.1227 410.032 89.4C410.779 89.656 411.525 89.9547 412.272 90.296C413.04 90.616 413.733 91.032 414.352 91.544C414.992 92.0347 415.504 92.6853 415.888 93.496C416.272 94.3067 416.464 95.352 416.464 96.632C416.464 98.1467 416.176 99.3947 415.6 100.376C415.024 101.336 414.224 102.051 413.2 102.52C412.197 102.989 411.035 103.224 409.712 103.224Z" fill="#212121"/>
<line x1="1" y1="69.5" x2="594.001" y2="69.5" stroke="black"/>
</svg>
